<mxfile host="app.diagrams.net" modified="2020-07-28T03:44:59.876Z" agent="5.0 (Windows)" etag="Wr4tvgTyrv5svd4FNlYs" version="13.5.3" type="github">
  <diagram id="W66Z8Ax2obdzoX9o477M" name="Page-1">
    <mxGraphModel dx="782" dy="1691" grid="1" gridSize="10" guides="1" tooltips="1" connect="1" arrows="1" fold="1" page="1" pageScale="1" pageWidth="827" pageHeight="1169" math="0" shadow="0">
      <root>
        <mxCell id="0" />
        <mxCell id="1" parent="0" />
        <mxCell id="Tp5En_T8EPDPuKO-Ky_b-12" value="" style="outlineConnect=0;dashed=0;verticalLabelPosition=bottom;verticalAlign=top;align=center;html=1;shape=mxgraph.aws3.lex;fillColor=#2E73B8;gradientColor=none;strokeColor=#006658;fontFamily=Verdana;fontSize=21;fontColor=#050505;" vertex="1" parent="1">
          <mxGeometry x="290" y="-331" width="170" height="151" as="geometry" />
        </mxCell>
        <mxCell id="Tp5En_T8EPDPuKO-Ky_b-13" value="" style="outlineConnect=0;dashed=0;verticalLabelPosition=bottom;verticalAlign=top;align=center;html=1;shape=mxgraph.aws3.management_console;fillColor=#D2D3D3;gradientColor=none;strokeColor=#006658;fontFamily=Verdana;fontSize=21;fontColor=#050505;" vertex="1" parent="1">
          <mxGeometry x="90" y="-357.5" width="120" height="86" as="geometry" />
        </mxCell>
        <mxCell id="Tp5En_T8EPDPuKO-Ky_b-14" value="" style="outlineConnect=0;dashed=0;verticalLabelPosition=bottom;verticalAlign=top;align=center;html=1;shape=mxgraph.aws3.management_console;fillColor=#F58534;gradientColor=none;strokeColor=#006658;fontFamily=Verdana;fontSize=21;fontColor=#050505;" vertex="1" parent="1">
          <mxGeometry x="530" y="-357.5" width="130" height="77" as="geometry" />
        </mxCell>
        <mxCell id="Tp5En_T8EPDPuKO-Ky_b-15" value="" style="outlineConnect=0;dashed=0;verticalLabelPosition=bottom;verticalAlign=top;align=center;html=1;shape=mxgraph.aws3.topic;fillColor=#5294CF;gradientColor=none;strokeColor=#006658;fontFamily=Verdana;fontSize=21;fontColor=#050505;" vertex="1" parent="1">
          <mxGeometry x="340" y="-551" width="49.5" height="66" as="geometry" />
        </mxCell>
        <mxCell id="Tp5En_T8EPDPuKO-Ky_b-18" value="" style="outlineConnect=0;dashed=0;verticalLabelPosition=bottom;verticalAlign=top;align=center;html=1;shape=mxgraph.aws3.permissions;fillColor=#759C3E;gradientColor=none;strokeColor=#006658;fontFamily=Verdana;fontSize=21;fontColor=#050505;" vertex="1" parent="1">
          <mxGeometry x="80" y="-576.75" width="67.5" height="79.5" as="geometry" />
        </mxCell>
        <mxCell id="Tp5En_T8EPDPuKO-Ky_b-19" value="" style="outlineConnect=0;dashed=0;verticalLabelPosition=bottom;verticalAlign=top;align=center;html=1;shape=mxgraph.aws3.permissions;fontFamily=Verdana;fontSize=21;strokeColor=#CC0000;fillColor=#CC0000;" vertex="1" parent="1">
          <mxGeometry x="565" y="-576.75" width="67.5" height="79.5" as="geometry" />
        </mxCell>
        <mxCell id="Tp5En_T8EPDPuKO-Ky_b-21" value="" style="outlineConnect=0;dashed=0;verticalLabelPosition=bottom;verticalAlign=top;align=center;html=1;shape=mxgraph.aws3.message;fillColor=#D9A741;gradientColor=none;strokeColor=#CC0000;strokeWidth=3;fontFamily=Verdana;fontSize=21;fontColor=#050505;" vertex="1" parent="1">
          <mxGeometry x="137.25" y="-340" width="25.5" height="20" as="geometry" />
        </mxCell>
        <mxCell id="Tp5En_T8EPDPuKO-Ky_b-22" value="" style="outlineConnect=0;dashed=0;verticalLabelPosition=bottom;verticalAlign=top;align=center;html=1;shape=mxgraph.aws3.import_export;fillColor=#E05243;gradientColor=none;strokeColor=#CC0000;strokeWidth=3;fontFamily=Verdana;fontSize=21;fontColor=#050505;" vertex="1" parent="1">
          <mxGeometry x="332.5" y="-420.5" width="64.5" height="63" as="geometry" />
        </mxCell>
        <mxCell id="Tp5En_T8EPDPuKO-Ky_b-23" value="" style="outlineConnect=0;dashed=0;verticalLabelPosition=bottom;verticalAlign=top;align=center;html=1;shape=mxgraph.aws3.long_term_security_credential;fillColor=#ffffff;gradientColor=none;strokeColor=#CC0000;strokeWidth=3;fontFamily=Verdana;fontSize=21;fontColor=#050505;" vertex="1" parent="1">
          <mxGeometry x="565" y="-444" width="60" height="48" as="geometry" />
        </mxCell>
        <mxCell id="Tp5En_T8EPDPuKO-Ky_b-24" value="Software de cifrado RSA&amp;nbsp;&amp;nbsp;&amp;nbsp; " style="text;html=1;resizable=0;autosize=1;align=center;verticalAlign=middle;points=[];fillColor=none;strokeColor=none;rounded=0;fontFamily=Verdana;fontSize=21;fontColor=#050505;" vertex="1" parent="1">
          <mxGeometry x="224.5" y="-155" width="290" height="30" as="geometry" />
        </mxCell>
        <mxCell id="Tp5En_T8EPDPuKO-Ky_b-25" value="" style="outlineConnect=0;dashed=0;verticalLabelPosition=bottom;verticalAlign=top;align=center;html=1;shape=mxgraph.aws3.temporary_security_credential;fillColor=#ffffff;gradientColor=none;strokeColor=#CC0000;strokeWidth=3;fontFamily=Verdana;fontSize=21;fontColor=#050505;" vertex="1" parent="1">
          <mxGeometry x="95.25" y="-450" width="67.5" height="60" as="geometry" />
        </mxCell>
      </root>
    </mxGraphModel>
  </diagram>
</mxfile>
